<svg xmlns="http://www.w3.org/2000/svg" viewBox="0 0 96 96"><circle cx="48" cy="48" r="48" fill="#E3EFE7"/><path d="M14 96c2-18 16-26 34-26s32 8 34 26z" fill="#2F6B4A"/><path d="M38 72q10 8 20 0" stroke="#24553A" stroke-width="3" fill="none"/><path d="M41 60h14v12c0 4-14 4-14 0z" fill="#E2B28F"/><ellipse cx="48" cy="45" rx="17" ry="20" fill="#EDC19F"/><path d="M34 54q14 16 28 0q0 12-14 13-14-1-14-13z" fill="#6B4A33" opacity=".85"/><path d="M30 42c-2-14 6-22 18-22 13 0 20 8 18 22-3-6-8-10-16-10-9 0-15 3-20 10z" fill="#5A3C28"/><ellipse cx="41" cy="46" rx="2" ry="2.3" fill="#2A2320"/><ellipse cx="55" cy="46" rx="2" ry="2.3" fill="#2A2320"/><path d="M37.5 41h7M51.5 41h7" stroke="#4A3120" stroke-width="1.8" stroke-linecap="round"/><path d="M42 55q6 4 12 0" stroke="#fff" stroke-width="2" fill="none" stroke-linecap="round"/></svg>
