<svg xmlns="http://www.w3.org/2000/svg" viewBox="0 0 400 300"><rect width="400" height="300" fill="#F0E7DB"/><rect y="210" width="400" height="90" fill="#CBB59E"/><rect x="250" y="30" width="110" height="80" rx="6" fill="#BFE0F2"/><path d="M250 90 L285 65 L320 85 L360 60 L360 110 L250 110 Z" fill="#7FA7C2"/><rect x="302" y="30" width="6" height="80" fill="#fff"/><rect x="40" y="130" width="170" height="30" rx="8" fill="#6B5647"/><rect x="40" y="152" width="170" height="66" rx="10" fill="#F7F3EE"/><rect x="40" y="178" width="170" height="40" rx="9" fill="#C38B6B"/><rect x="50" y="144" width="50" height="20" rx="8" fill="#fff"/><rect x="235" y="130" width="60" height="30" rx="8" fill="#6B5647"/><rect x="235" y="152" width="60" height="66" rx="10" fill="#F7F3EE"/><rect x="235" y="178" width="60" height="40" rx="9" fill="#C38B6B"/><rect x="245" y="144" width="40" height="20" rx="8" fill="#fff"/><rect x="310" y="130" width="60" height="30" rx="8" fill="#6B5647"/><rect x="310" y="152" width="60" height="66" rx="10" fill="#F7F3EE"/><rect x="310" y="178" width="60" height="40" rx="9" fill="#C38B6B"/><rect x="320" y="144" width="40" height="20" rx="8" fill="#fff"/></svg>