<svg xmlns="http://www.w3.org/2000/svg" viewBox="0 0 800 520"><defs><linearGradient id="s" x1="0" y1="0" x2="0" y2="1"><stop offset="0" stop-color="#F6D7B0"/><stop offset="1" stop-color="#BFDDEB"/></linearGradient></defs><rect width="800" height="520" fill="url(#s)"/><circle cx="600" cy="140" r="60" fill="#FBE7C6"/><path d="M0 300 L150 170 L260 260 L380 140 L520 270 L640 190 L800 290 L800 520 L0 520 Z" fill="#7D9AAE"/><path d="M0 340 L200 250 L330 320 L470 230 L640 320 L800 280 L800 520 L0 520 Z" fill="#5E7F95"/><rect y="370" width="800" height="150" fill="#6FA3C0"/><path d="M0 390 Q200 380 400 392 T800 388" stroke="#9CC7DD" stroke-width="4" fill="none"/><rect x="90" y="250" width="200" height="130" fill="#F2EBE1"/><path d="M80 255 L190 190 L300 255 Z" fill="#8A5A44"/><g fill="#9FC3D8"><rect x="110" y="275" width="28" height="32" rx="3"/><rect x="110" y="325" width="28" height="32" rx="3"/><rect x="155" y="275" width="28" height="32" rx="3"/><rect x="155" y="325" width="28" height="32" rx="3"/><rect x="200" y="275" width="28" height="32" rx="3"/><rect x="200" y="325" width="28" height="32" rx="3"/><rect x="245" y="275" width="28" height="32" rx="3"/><rect x="245" y="325" width="28" height="32" rx="3"/></g><circle cx="330" cy="330" r="40" fill="#5D8A55"/><circle cx="360" cy="310" r="32" fill="#6E9B63"/><rect x="340" y="340" width="10" height="45" fill="#6B4E34"/></svg>